<?xml version="1.0" encoding="UTF-8" standalone="no"?>
<svg width="100%" height="100%" viewBox="0 0 222 222"
  version="1.1" xmlns="http://www.w3.org/2000/svg"
  style="fill-rule:evenodd;clip-rule:evenodd;
    stroke-linejoin:round;stroke-miterlimit:2;">
  <path
    d="M0,44.386l133.157,0l0,44.386l-88.771,-0l-0,88.771
      l-44.386,0l0,-133.157Zm88.771,88.771l133.157,0l0,44.386
      l-133.157,0l0,-44.386Zm88.771,-88.771l44.386,0l0,44.386
      l-44.386,0l0,-44.386Z"
    style="fill:#e8a838;" />
  <path
    d="M177.542,0l0,133.157l-44.386,0l0,-133.157l44.386,0
      Zm-0,221.928l-133.157,0l0,-133.157l44.386,0l-0,88.771
      l88.771,0l0,44.386Zm-133.157,-177.542l0,-44.386l44.386,0
      l0,44.386l-44.386,0Z"
    style="fill:#5e6b78;" />
</svg>
