<?xml version="1.0" encoding="UTF-8" standalone="no"?>
<!DOCTYPE svg PUBLIC "-//W3C//DTD SVG 1.1//EN" "http://www.w3.org/Graphics/SVG/1.1/DTD/svg11.dtd"><svg width="100%"
  height="100%" viewBox="0 0 1023 222" version="1.1" xmlns="http://www.w3.org/2000/svg"
  xmlns:xlink="http://www.w3.org/1999/xlink" xml:space="preserve" xmlns:serif="http://www.serif.com/"
  style="fill-rule:evenodd;clip-rule:evenodd;stroke-linejoin:round;stroke-miterlimit:2;">
  <path
    d="M310.699,44.408l20.465,0.002l0,93.234c0,8.306 0.695,14.009 2.09,17.101c2.245,5.155 6.339,7.73 12.28,7.73c4.972,0 8.521,-1.121 10.643,-3.366c1.82,-2.003 3.076,-4.519 3.775,-7.551c0.695,-3.032 1.045,-7.67 1.045,-13.918l0,-93.234l20.467,0l0,93.234c0,8.064 -0.425,14.037 -1.272,17.92c-3.394,15.766 -14.768,23.65 -34.11,23.65c-10.186,0 -17.86,-1.971 -23.015,-5.914c-4.789,-3.64 -8.052,-7.944 -9.777,-12.916c-1.729,-4.972 -2.591,-12.554 -2.591,-22.74l-0.002,-93.232Zm127.879,132.99l0,-132.988l20.376,0l34.293,90.961l0,-90.961l19.191,0l0,132.988l-19.374,-0l-35.295,-91.963l0,91.963l-19.191,0Zm179.27,-39.299l18.74,0.002c-0.123,11.219 -1.82,19.708 -5.095,25.471c-5.882,10.432 -15.829,15.646 -29.834,15.646c-13.099,0 -22.498,-4.427 -28.197,-13.282c-4.062,-6.184 -6.096,-16.584 -6.096,-31.201l0,-47.392c0,-15.948 2.488,-27.076 7.46,-33.383c5.882,-7.46 14.828,-11.187 26.834,-11.187c14.371,0 24.318,5.639 29.834,16.918c2.424,4.912 3.728,12.221 3.911,21.922l-18.83,0c-0.366,-6.124 -1.029,-10.583 -2.003,-13.373c-2.063,-5.822 -6.247,-8.731 -12.554,-8.731c-5.337,0 -9.037,2.122 -11.096,6.367c-2.063,4.244 -3.092,11.823 -3.092,22.74l0,44.845c0,9.765 0.787,16.707 2.365,20.829c2.122,5.457 6.184,8.187 12.189,8.187c5.397,0 9.292,-1.88 11.688,-5.639c2.396,-3.76 3.654,-10.005 3.777,-18.736Zm68.547,39.297l0,-132.986l20.467,0l0,115.975l40.934,0l0,17.01l-61.401,0.002Zm161.906,-27.563l-33.109,0l-6.005,27.561l-22.104,0l36.022,-132.988l17.192,0l36.022,132.988l-22.104,0l-5.914,-27.561Zm-3.549,-16.465l-13.008,-60.583l-13.008,60.583l26.015,0Zm79.485,44.03l-22.198,-132.988l20.376,0l12.28,95.873l19.648,-95.873l15.738,0l19.74,95.873l12.28,-95.873l20.376,0l-22.287,132.988l-18.373,-0l-19.557,-92.873l-19.557,92.873l-18.466,0Z"
    style="fill:#2a2f2c;" />
  <path
    d="M0,44.386l133.157,0l0,44.386l-88.771,-0l-0,88.771l-44.386,0l0,-133.157Zm88.771,88.771l133.157,0l0,44.386l-133.157,0l0,-44.386Zm88.771,-88.771l44.386,0l0,44.386l-44.386,0l0,-44.386Z"
    style="fill:#e8a838;" />
  <path
    d="M177.542,0l0,133.157l-44.386,0l0,-133.157l44.386,0Zm-0,221.928l-133.157,0l0,-133.157l44.386,0l-0,88.771l88.771,0l0,44.386Zm-133.157,-177.542l0,-44.386l44.386,0l0,44.386l-44.386,0Z"
    style="fill:#5e6b78;" />
</svg>
