<svg xmlns="http://www.w3.org/2000/svg" width="2500" height="2500" viewBox="0 0 150 150"><path fill="#f9ff69" d="M0 0h150v150H0z"/><path fill="#161616" d="M30 28.3c0-.6.5-1.1 1.1-1.1h8.4c.6 0 1.1.5 1.1 1.1v93.3c0 .6-.5 1.1-1.1 1.1h-8.4c-.6 0-1.1-.5-1.1-1.1zm21.2 0c0-.6.5-1.1 1.1-1.1h8.4c.6 0 1.1.5 1.1 1.1v93.3c0 .6-.5 1.1-1.1 1.1h-8.4c-.6 0-1.1-.5-1.1-1.1zm21.2 0c0-.6.5-1.1 1.1-1.1h8.4c.6 0 1.1.5 1.1 1.1v93.3c0 .6-.5 1.1-1.1 1.1h-8.4c-.6 0-1.1-.5-1.1-1.1zm21.3 0c0-.6.5-1.1 1.1-1.1h8.4c.6 0 1.1.5 1.1 1.1v93.3c0 .6-.5 1.1-1.1 1.1h-8.4c-.6 0-1.1-.5-1.1-1.1zm21.2 37.2c0-.6.5-1.1 1.1-1.1h8.4c.6 0 1.1.5 1.1 1.1v19c0 .6-.5 1.1-1.1 1.1H116c-.6 0-1.1-.5-1.1-1.1z"/></svg>